# xmcd
#
# Track frame offsets: 
#        150
#        20206
#        41630
#        58371
#        77777
#        101379
#        130501
#        145812
#        165999
#        193184
#        220490
#        245811
#
# Disc length: 3457 seconds
#
# Revision: 1
# Processed by: cddbd v1.5.2PL0 Copyright (c) Steve Scherf et al.
# Submitted via: ExactAudioCopy v0.99pb5
#
DISCID=b00d7f0c
DTITLE=Orquesta Souvenir - Tributo a Angel Canales
DYEAR=1900
DGENRE=Salsa
TTITLE0=Sabor los rumberos nuevos
TTITLE1=Hace tiempo
TTITLE2=El cantante y la orquesta
TTITLE3=Lejos de ti
TTITLE4=Sandra
TTITLE5=Bomba
TTITLE6=Perico Macona
TTITLE7=Solo sé que tiene nombre de mujer
TTITLE8=La humanidad
TTITLE9=La sombra
TTITLE10=Nostalgias
TTITLE11=Dos gardenias
EXTD=
EXTT0=
EXTT1=
EXTT2=
EXTT3=
EXTT4=
EXTT5=
EXTT6=
EXTT7=
EXTT8=
EXTT9=
EXTT10=
EXTT11=
PLAYORDER=
